<?xml version="1.0" encoding="UTF-8" standalone="yes"?>
<!DOCTYPE svg PUBLIC "-//W3C//DTD SVG 1.1//EN" "http://www.w3.org/Graphics/SVG/1.1/DTD/svg11.dtd">

<svg width="400" height="400" viewBox="0 0 400 400" xmlns="http://www.w3.org/2000/svg" xmlns:xlink="http://www.w3.org/1999/xlink" version="1.1" baseProfile="full">
    <g transform="scale(1,-1) translate(0,-400)">
        <path d="M 1.000000 7.590787 C 1.000000 3.952959 17.356501 1.000000 37.525735 1.000000 C 57.694968 1.000000 74.051470 3.952959 74.051470 7.590787 L 74.051470 66.032607 L 1.000000 66.032607 L 1.000000 7.590787 Z" transform="scale(1.000000,1.000000) translate(223.439289,107.472262)" fill="#dff874" opacity="1.000000"></path>
        <path d="M 42.957400 1.996500 L 46.596200 2.096800 L 50.109500 2.260100 L 53.479000 2.482900 L 56.686800 2.762000 L 59.715000 3.094300 L 62.545700 3.476600 L 65.161700 3.906100 L 67.546000 4.380100 L 69.682500 4.896600 L 71.556500 5.454900 L 73.138600 6.049100 L 73.829200 6.366400 L 74.447500 6.698300 L 74.993100 7.048600 L 75.464600 7.423800 L 75.785900 7.748300 L 75.857500 7.833800 L 76.089800 8.163500 L 76.159400 8.289000 L 76.300500 8.623500 L 76.346700 8.791000 L 76.400700 9.223000 L 76.400700 67.664800 L 76.348000 67.925600 L 76.204400 68.138500 L 75.991500 68.282100 L 75.730700 68.334800 L 2.679200 68.334800 L 2.418300 68.282100 L 2.205400 68.138500 L 2.061800 67.925600 L 2.009100 67.664800 L 2.009100 9.223000 L 2.015600 9.129800 L 2.063200 8.790800 L 2.109400 8.623500 L 2.250500 8.289000 L 2.320100 8.163500 L 2.552400 7.833800 L 2.624000 7.748300 L 3.008900 7.367300 L 3.470100 7.011000 L 4.006400 6.672600 L 4.617200 6.348300 L 5.315100 6.031000 L 6.897600 5.440000 L 8.760900 4.887600 L 10.890500 4.374200 L 13.270100 3.902100 L 15.882900 3.473800 L 18.711500 3.092300 L 21.738000 2.760500 L 24.944700 2.481900 L 28.313500 2.259300 L 31.826200 2.096400 L 35.464800 1.996200 L 39.211100 1.962100 Z M 35.471000 2.666300 L 31.844700 2.766200 L 28.344600 2.928700 L 24.988900 3.150500 L 21.796100 3.428100 L 18.784600 3.758400 L 15.972600 4.137900 L 13.378600 4.563400 L 11.021000 5.031500 L 8.918100 5.539000 L 7.088400 6.082400 L 5.550100 6.658500 L 4.896000 6.957700 L 4.321700 7.263900 L 3.829400 7.576600 L 3.421500 7.895300 L 3.100200 8.219800 L 2.867900 8.549500 L 2.726800 8.884000 L 2.679200 9.223000 L 2.679200 67.664800 L 75.730700 67.664800 L 75.730700 9.223000 L 75.683200 8.884000 L 75.542100 8.549500 L 75.309800 8.219800 L 74.988500 7.895300 L 74.580600 7.576600 L 74.088300 7.263900 L 73.514000 6.957700 L 72.859900 6.658500 L 71.321600 6.082400 L 69.491800 5.539000 L 67.388900 5.031500 L 65.031300 4.563400 L 62.437300 4.137900 L 59.625400 3.758400 L 56.613800 3.428100 L 53.421000 3.150500 L 50.065400 2.928700 L 46.565200 2.766200 L 42.939000 2.666300 L 39.205000 2.632200 Z" transform="scale(1.000000,1.000000) translate(221.760000,105.840000)" fill="#272729" opacity="1.000000"></path>
        <path d="M 1.000000 5.385800 C 1.000000 2.968297 13.169546 1.000000 28.171383 1.000000 C 43.173204 1.000000 55.342750 2.959885 55.342750 5.385800 L 55.342750 15.404003 L 1.000000 15.404003 L 1.000000 5.385800 Z" transform="scale(1.000000,1.000000) translate(232.508168,169.101644)" fill="#d73d56" opacity="1.000000"></path>
        <path d="M 32.353300 1.694300 L 35.061900 1.761000 L 37.677200 1.869600 L 40.185700 2.017600 L 42.574300 2.203300 L 44.829500 2.424300 L 46.938200 2.678900 L 48.887900 2.965000 L 50.666100 3.281100 L 52.261200 3.626000 L 53.663300 3.999800 L 54.865400 4.405600 L 55.865200 4.854300 L 56.535000 5.274900 L 56.628100 5.345500 L 56.867100 5.561700 L 56.944400 5.644400 L 57.117200 5.864200 L 57.196700 5.992900 L 57.301700 6.215900 L 57.357400 6.397700 L 57.392800 6.623700 L 57.400900 6.727400 L 57.400900 16.745600 L 57.348200 17.006400 L 57.204600 17.219300 L 56.991700 17.362900 L 56.730900 17.415600 L 2.388100 17.415600 L 2.127200 17.362900 L 1.914300 17.219300 L 1.770700 17.006400 L 1.718000 16.745600 L 1.718000 6.727400 L 1.726100 6.623300 L 1.761500 6.398000 L 1.817500 6.216000 L 1.922500 5.993600 L 2.002300 5.864700 L 2.175100 5.645600 L 2.252300 5.563100 L 2.491300 5.347400 L 2.584300 5.277200 L 3.339900 4.811700 L 4.311200 4.386800 L 5.496400 3.991300 L 6.888400 3.622300 L 8.476900 3.279800 L 10.250700 2.964900 L 12.197400 2.679300 L 14.304200 2.425000 L 16.557900 2.203800 L 18.945500 2.018000 L 21.453300 1.869700 L 24.068200 1.761000 L 26.776600 1.694200 L 29.564900 1.671500 Z M 26.782100 2.364300 L 24.084800 2.430900 L 21.481200 2.539200 L 18.985100 2.686900 L 16.610000 2.871900 L 14.369700 3.091900 L 12.277800 3.344600 L 10.348100 3.627900 L 8.594200 3.939600 L 7.029800 4.277300 L 5.668500 4.638900 L 4.524000 5.022200 L 3.610100 5.424900 L 2.940300 5.844900 L 2.701300 6.060600 L 2.528500 6.279700 L 2.423500 6.502100 L 2.388100 6.727400 L 2.388100 16.745600 L 56.730900 16.745600 L 56.730900 6.727400 L 56.695500 6.501400 L 56.590500 6.278400 L 56.417700 6.058600 L 56.178700 5.842400 L 55.508900 5.421800 L 54.595000 5.018700 L 53.450500 4.635200 L 52.089200 4.273600 L 50.524800 3.936100 L 48.770900 3.624800 L 46.841100 3.341900 L 44.749300 3.089600 L 42.509000 2.870200 L 40.133900 2.685700 L 37.637800 2.538500 L 35.034200 2.430500 L 32.336900 2.364200 L 29.559500 2.341600 Z" transform="scale(1.000000,1.000000) translate(231.120000,167.760000)" fill="#272729" opacity="1.000000"></path>
        <path d="M 28.171383 1.000000 C 43.177495 1.000000 55.342750 2.963048 55.342750 5.384741 C 55.342750 7.807509 43.177495 9.770540 28.171383 9.770540 C 13.165271 9.770540 1.000000 7.807509 1.000000 5.384741 C 1.000000 2.963048 13.165271 1.000000 28.171383 1.000000 Z" transform="scale(1.000000,1.000000) translate(232.508168,179.113539)" fill="#f8b6ed" opacity="1.000000"></path>
        <path d="M 32.354100 1.626200 L 35.063100 1.693100 L 37.678900 1.801700 L 40.187600 1.950000 L 42.576200 2.135800 L 44.831400 2.357000 L 46.940100 2.611700 L 48.889600 2.897900 L 50.667500 3.214100 L 52.262400 3.559000 L 53.664200 3.932800 L 54.865800 4.338300 L 55.865400 4.786700 L 56.534900 5.206900 L 56.628000 5.277300 L 56.867000 5.493300 L 56.944100 5.575900 L 57.116900 5.795300 L 57.196700 5.924300 L 57.301600 6.147000 L 57.357400 6.328700 L 57.392800 6.554300 L 57.392800 6.761900 L 57.357400 6.987700 L 57.301600 7.169500 L 57.196700 7.392200 L 57.117100 7.521000 L 56.944300 7.740600 L 56.867000 7.823400 L 56.628000 8.039400 L 56.535000 8.109700 L 55.779600 8.575600 L 54.808400 9.000900 L 53.623400 9.396500 L 52.231700 9.765500 L 50.643300 10.107900 L 48.869700 10.422600 L 46.923200 10.707900 L 44.816500 10.962000 L 42.562800 11.182800 L 40.175200 11.368200 L 37.667100 11.516300 L 35.051900 11.624700 L 32.343000 11.691400 L 29.554000 11.714000 L 26.764800 11.691200 L 24.055800 11.624300 L 21.440000 11.515700 L 18.931300 11.367400 L 16.542700 11.181600 L 14.287400 10.960400 L 12.178800 10.705600 L 10.229300 10.419400 L 8.451400 10.103100 L 6.856500 9.758100 L 5.454700 9.384300 L 4.253000 8.978600 L 3.253400 8.530000 L 2.583900 8.109700 L 2.490900 8.039400 L 2.251900 7.823400 L 2.174600 7.740600 L 2.001800 7.521000 L 1.922200 7.392200 L 1.817300 7.169500 L 1.761500 6.987700 L 1.726100 6.761900 L 1.726100 6.554300 L 1.761500 6.328700 L 1.817300 6.147000 L 1.922200 5.924300 L 2.002000 5.795300 L 2.174800 5.575900 L 2.251900 5.493300 L 2.490900 5.277300 L 2.584000 5.206900 L 3.339400 4.741100 L 4.310500 4.316100 L 5.495500 3.920600 L 6.887200 3.551600 L 8.475600 3.209300 L 10.249200 2.894700 L 12.195800 2.609400 L 14.302400 2.355400 L 16.556100 2.134600 L 18.943700 1.949200 L 21.451800 1.801100 L 24.067000 1.692700 L 26.775900 1.626000 L 29.554000 1.603400 L 29.564900 1.603400 Z M 26.781400 2.296100 L 24.083600 2.362600 L 21.479600 2.470600 L 18.983300 2.618100 L 16.608100 2.802700 L 14.367800 3.022300 L 12.276100 3.274700 L 10.346500 3.557700 L 8.592800 3.869100 L 7.028600 4.206600 L 5.667600 4.568200 L 4.523400 4.951500 L 3.609700 5.354300 L 2.940200 5.774500 L 2.701200 5.990500 L 2.528400 6.209900 L 2.423500 6.432600 L 2.388100 6.658200 L 2.423500 6.884000 L 2.528400 7.106700 L 2.701200 7.326300 L 2.940200 7.542300 L 3.609700 7.962600 L 4.523400 8.365600 L 5.667600 8.749000 L 7.028600 9.110600 L 8.592800 9.448200 L 10.346500 9.759700 L 12.276100 10.042700 L 14.367800 10.295200 L 16.608100 10.514800 L 18.983300 10.699400 L 21.479600 10.846900 L 24.083600 10.954900 L 26.781400 11.021400 L 29.559500 11.044000 L 32.337600 11.021400 L 35.035400 10.954900 L 37.639400 10.846900 L 40.135700 10.699400 L 42.510900 10.514800 L 44.751200 10.295200 L 46.842900 10.042700 L 48.772500 9.759700 L 50.526200 9.448200 L 52.090400 9.110600 L 53.451400 8.749000 L 54.595600 8.365600 L 55.509300 7.962600 L 56.178800 7.542300 L 56.417800 7.326300 L 56.590600 7.106700 L 56.695500 6.884000 L 56.730900 6.658200 L 56.695500 6.432600 L 56.590600 6.209900 L 56.417800 5.990500 L 56.178800 5.774500 L 55.509300 5.354300 L 54.595600 4.951500 L 53.451400 4.568200 L 52.090400 4.206600 L 50.526200 3.869100 L 48.772500 3.557700 L 46.842900 3.274700 L 44.751200 3.022300 L 42.510900 2.802700 L 40.135700 2.618100 L 37.639400 2.470600 L 35.035400 2.362600 L 32.337600 2.296100 L 29.559500 2.273500 Z" transform="scale(1.000000,1.000000) translate(231.120000,177.840000)" fill="#272729" opacity="1.000000"></path>
        <path d="M 1.000000 84.048659 L 181.401001 84.048659 L 181.401001 59.397644 C 181.401001 27.162223 154.871140 1.000000 122.203051 1.000000 L 60.207037 1.000000 C 27.530073 1.000000 1.008875 27.171678 1.008875 59.397644 L 1.008875 84.048659 L 1.000000 84.048659 Z" transform="scale(1.000000,1.000000) translate(126.672613,211.856035)" fill="#dffa74" opacity="1.000000"></path>
        <path d="M 123.603900 1.946000 L 125.147500 1.965500 L 126.681400 2.023200 L 128.205500 2.118900 L 129.727400 2.252800 L 132.721200 2.629400 L 135.667400 3.149800 L 138.562200 3.810300 L 141.401800 4.607300 L 144.182400 5.536900 L 146.900100 6.595600 L 149.551200 7.779500 L 152.131900 9.084800 L 154.638500 10.508000 L 157.067100 12.045300 L 159.414000 13.692800 L 161.675400 15.447200 L 163.847600 17.304300 L 165.926800 19.260800 L 167.909300 21.312800 L 169.791200 23.456600 L 171.568800 25.688600 L 173.238300 28.005000 L 174.796000 30.402100 L 176.237900 32.876200 L 177.560600 35.423700 L 178.759900 38.040800 L 179.832200 40.723700 L 180.773700 43.468600 L 181.580500 46.271800 L 182.249000 49.129800 L 182.774100 52.029800 L 182.983000 53.501900 L 183.154900 54.985400 L 183.289400 56.479500 L 183.386000 57.984100 L 183.444100 59.498400 L 183.463600 61.013600 L 183.463600 85.664600 L 183.410900 85.925400 L 183.267300 86.138300 L 183.054400 86.281900 L 182.793600 86.334600 L 2.392600 86.334600 L 2.099400 86.277000 L 1.890000 86.125200 L 1.764400 85.910600 L 1.722500 85.664600 L 1.731300 85.612900 L 1.731400 61.004900 L 1.751200 59.481600 L 1.809800 57.967700 L 1.906800 56.463600 L 2.041700 54.969900 L 2.213900 53.486800 L 2.424500 52.006800 L 2.952400 49.099200 L 3.622300 46.242300 L 4.430600 43.440100 L 5.373300 40.696100 L 6.446900 38.014400 L 7.647300 35.398300 L 8.970900 32.851800 L 10.414000 30.378700 L 11.972600 27.982500 L 13.643000 25.667000 L 15.421500 23.436000 L 17.304200 21.293100 L 19.287600 19.242000 L 21.367600 17.286400 L 23.540500 15.430100 L 25.802900 13.676700 L 28.150600 12.030000 L 30.580100 10.493700 L 33.087500 9.071500 L 35.669200 7.767200 L 38.321200 6.584300 L 41.039800 5.526900 L 43.821300 4.598500 L 46.661900 3.802800 L 49.557700 3.143600 L 52.504800 2.624600 L 55.491200 2.250300 L 57.005200 2.117600 L 58.529600 2.022400 L 60.064100 1.965100 L 61.599600 1.945900 Z M 61.599600 2.616000 L 60.072500 2.635100 L 58.554800 2.692000 L 57.047100 2.786400 L 55.549800 2.917800 L 52.588300 3.289500 L 49.674100 3.803500 L 46.810800 4.456100 L 44.002300 5.243700 L 41.252200 6.162500 L 38.564300 7.208800 L 35.942300 8.379100 L 33.389900 9.669500 L 30.910900 11.076500 L 28.508900 12.596300 L 26.187800 14.225200 L 23.951200 15.959600 L 21.803000 17.795800 L 19.746700 19.730100 L 17.786100 21.758800 L 15.925000 23.878200 L 14.167100 26.084600 L 12.516100 28.374400 L 10.975800 30.743900 L 9.549800 33.189400 L 8.242000 35.707200 L 7.056000 38.293700 L 5.995500 40.945000 L 5.064400 43.657700 L 4.266200 46.427900 L 3.604800 49.252000 L 3.083900 52.126300 L 2.877300 53.581100 L 2.707300 55.047100 L 2.574200 56.523800 L 2.478500 58.010800 L 2.420800 59.507500 L 2.401400 61.013600 L 2.401400 85.664600 L 182.793600 85.664600 L 182.793600 61.013600 L 182.774200 59.507100 L 182.716500 58.010000 L 182.620800 56.522600 L 182.487600 55.045600 L 182.317500 53.579200 L 182.110800 52.124100 L 181.589800 49.249300 L 180.928200 46.424700 L 180.129900 43.654200 L 179.198500 40.941300 L 178.137800 38.289700 L 176.951600 35.703100 L 175.643400 33.185200 L 174.217200 30.739700 L 172.676600 28.370300 L 171.025400 26.080600 L 169.267200 23.874200 L 167.405900 21.755000 L 165.445100 19.726500 L 163.388600 17.792500 L 161.240200 15.956600 L 159.003500 14.222400 L 156.682300 12.593800 L 154.280300 11.074300 L 151.801300 9.667600 L 149.249000 8.377500 L 146.627100 7.207500 L 143.939400 6.161400 L 141.189600 5.242900 L 138.381400 4.455500 L 135.518600 3.803100 L 132.604900 3.289300 L 129.644000 2.917700 L 128.147000 2.786400 L 126.639600 2.692000 L 125.122400 2.635100 L 123.595600 2.616000 Z" transform="scale(1.000000,1.000000) translate(125.280000,210.240000)" fill="#272729" opacity="1.000000"></path>
        <path d="M 2.170039 40.546939 L 2.170039 1.000000 L 1.000000 1.000000 L 1.000000 40.546939 L 2.170039 40.546939 Z" transform="scale(1.000000,1.000000) translate(172.413011,290.071693)" fill="#272729" opacity="1.000000"></path>
        <path d="M 77.615078 48.456304 C 77.615078 69.328324 60.465240 86.245661 39.307009 86.245661 C 18.149194 86.245661 1.000000 69.328324 1.000000 48.456304 L 1.000000 28.243463 L 1.000000 23.849364 C 1.000000 11.229451 11.369771 1.000000 24.162648 1.000000 C 36.955532 1.000000 47.324879 11.229451 47.324879 23.849364 L 47.324879 58.123355 Z" transform="scale(1.000000,1.000000) translate(122.663682,272.057857)" fill="#dffa74" opacity="1.000000"></path>
        <path d="M 77.615078 49.041323 C 77.615078 69.588349 60.729034 86.245661 39.892029 86.245661 C 19.055502 86.245661 2.170039 69.588411 2.170039 49.041323 L 2.170039 28.828483 L 2.170039 24.434384 C 2.170039 12.139387 12.276095 2.170039 24.747667 2.170039 C 37.219162 2.170039 47.324879 12.139303 47.324879 24.434384 L 47.324879 58.708375 L 48.494919 58.708375 L 48.494919 24.434384 C 48.494919 11.489521 37.861824 1.000000 24.747667 1.000000 C 11.633440 1.000000 1.000000 11.489599 1.000000 24.434384 L 1.000000 28.828483 L 1.000000 49.041323 C 1.000000 70.238196 18.412844 87.415700 39.892029 87.415700 C 61.371684 87.415700 78.785118 70.238143 78.785118 49.041323 L 77.615078 49.041323 Z" transform="scale(1.000000,1.000000) translate(122.078662,271.472837)" fill="#272729" opacity="1.000000"></path>
        <path d="M 71.681705 6.272944 L 71.681705 65.857035 C 71.681705 85.112023 55.859799 100.719914 36.340636 100.719914 C 16.821473 100.719914 1.000000 85.112023 1.000000 65.857035 L 1.000000 42.348593 L 1.000000 22.082949 C 1.000000 10.438555 10.567771 1.000000 22.371642 1.000000 C 34.175529 1.000000 43.743716 10.438555 43.743716 22.082949 L 43.743716 53.702946 Z" transform="scale(1.000000,1.000000) translate(157.995557,269.007686)" fill="#dffa74" opacity="1.000000"></path>
        <path d="M 71.681705 6.857964 L 71.681705 66.442055 C 71.681705 85.372171 56.123468 100.719914 36.925656 100.719914 C 17.727928 100.719914 2.170039 85.372255 2.170039 66.442055 L 2.170039 42.933613 L 2.170039 22.667969 C 2.170039 11.348457 11.474131 2.170039 22.956662 2.170039 C 34.439290 2.170039 43.743716 11.348537 43.743716 22.667969 L 43.743716 54.287966 L 44.913756 54.287966 L 44.913756 22.667969 C 44.913756 10.698746 35.081942 1.000000 22.956662 1.000000 C 10.831471 1.000000 1.000000 10.698674 1.000000 22.667969 L 1.000000 42.933613 L 1.000000 66.442055 C 1.000000 86.022040 17.085270 101.889953 36.925656 101.889953 C 56.766122 101.889953 72.851744 86.021961 72.851744 66.442055 L 72.851744 6.857964 L 71.681705 6.857964 Z" transform="scale(1.000000,1.000000) translate(157.410537,268.422666)" fill="#272729" opacity="1.000000"></path>
        <path d="M 73.899646 87.555296 C 67.744305 100.298230 54.567579 109.095233 39.307009 109.095233 C 18.148770 109.095233 1.000000 92.177895 1.000000 71.305877 L 1.000000 45.820092 L 1.000000 23.849573 C 1.000000 11.229659 11.370097 1.000000 24.162974 1.000000 C 36.955851 1.000000 47.324871 11.229659 47.324871 23.849573 L 47.324871 58.123564 Z" transform="scale(1.000000,1.000000) translate(193.488017,265.904703)" fill="#dffa74" opacity="1.000000"></path>
        <path d="M 73.957884 87.885859 C 67.750239 100.737072 54.589253 109.095233 39.892029 109.095233 C 19.055226 109.095233 2.170039 92.438128 2.170039 71.890896 L 2.170039 46.405112 L 2.170039 24.434593 C 2.170039 12.139619 12.276399 2.170039 24.747994 2.170039 C 37.219375 2.170039 47.324871 12.139407 47.324871 24.434593 L 47.324871 58.708583 L 48.494911 58.708583 L 48.494911 24.434593 C 48.494911 11.489634 37.862044 1.000000 24.747994 1.000000 C 11.633746 1.000000 1.000000 11.489828 1.000000 24.434593 L 1.000000 46.405112 L 1.000000 71.890896 C 1.000000 93.087912 18.412566 110.265272 39.892029 110.265272 C 55.040673 110.265272 68.609595 101.648043 75.011449 88.394773 L 73.957884 87.885859 Z" transform="scale(1.000000,1.000000) translate(192.902997,265.319683)" fill="#272729" opacity="1.000000"></path>
        <path d="M 29.338935 1.000000 C 13.311744 3.004061 1.000000 14.929554 1.000000 29.341968 L 1.000000 35.336277 C 1.000000 35.651873 1.000000 35.960108 1.018174 36.275712 Z" transform="scale(1.000000,1.000000) translate(208.187267,231.929264)" fill="#dffa74" opacity="1.000000"></path>
        <path d="M 29.851369 1.000000 C 13.390558 3.058281 1.000000 15.332032 1.000000 29.922467 L 1.000000 35.916776 C 1.000000 36.155267 1.000383 36.260965 1.002330 36.394747 C 1.004937 36.573920 1.010165 36.733955 1.019142 36.889845 L 2.187246 36.822578 C 2.179319 36.684917 2.174624 36.541210 2.172246 36.377724 C 2.170409 36.251514 2.170039 36.149584 2.170039 35.916776 L 2.170039 29.922467 C 2.170039 15.958261 14.090806 4.149872 29.996541 2.160998 L 29.851369 1.000000 Z" transform="scale(1.000000,1.000000) translate(207.602248,231.348765)" fill="#272729" opacity="1.000000"></path>
        <path d="M 48.429351 1.000000 L 5.765389 1.000000 C 4.144487 1.000000 2.558874 1.096779 1.000000 1.298765 Z" transform="scale(1.000000,1.000000) translate(236.526203,231.629456)" fill="#dffa74" opacity="1.000000"></path>
        <path d="M 48.504525 1.000000 L 5.840562 1.000000 C 4.179098 1.000000 2.569581 1.100242 1.000000 1.303615 L 1.150347 2.463954 C 2.669181 2.267157 4.228531 2.170039 5.840562 2.170039 L 48.504525 2.170039 L 48.504525 1.000000 Z" transform="scale(1.000000,1.000000) translate(236.451029,231.044436)" fill="#272729" opacity="1.000000"></path>
        <path d="M 47.324871 108.813612 L 47.324871 121.398283 L 47.324871 23.849469 C 47.324871 11.229659 36.954790 1.000000 24.161897 1.000000 C 11.369021 1.000000 1.000000 11.229659 1.000000 23.849469 L 1.000000 26.397413 L 1.000000 136.153762 C 1.000000 154.459529 16.651891 169.294116 35.965784 169.294116 C 48.838847 169.294116 60.091025 154.565045 66.157615 144.748611 C 69.186644 139.844812 72.464780 135.090400 75.984567 130.511668 C 80.358635 124.808138 86.238113 114.947729 87.859015 101.624766 L 87.859015 76.613643 C 87.859015 60.820998 73.062464 48.017102 54.799589 48.017102 L 47.814569 48.017102 Z" transform="scale(1.000000,1.000000) translate(237.140985,184.614457)" fill="#dffa74" opacity="1.000000"></path>
        <path d="M 47.324871 109.398632 L 47.324871 121.983303 L 48.494911 121.983303 L 48.494911 24.434489 C 48.494911 11.489806 37.861159 1.000000 24.746917 1.000000 C 11.632883 1.000000 1.000000 11.489617 1.000000 24.434489 L 1.000000 26.982433 L 1.000000 136.738782 C 1.000000 155.374808 16.920555 170.464155 36.550804 170.464155 C 47.555365 170.464155 58.039922 160.528423 67.240289 145.641183 C 70.270365 140.735689 73.538840 135.999150 77.033401 131.453233 C 83.158402 123.466588 87.636171 113.694017 89.024772 102.280439 L 89.029054 77.198662 C 89.029054 61.060903 73.951343 48.017102 55.384608 48.017102 L 48.399589 48.017102 L 48.399589 49.187141 L 55.384608 49.187141 C 73.339777 49.187141 87.859015 61.747804 87.859015 77.198662 L 87.859015 102.209785 C 86.502283 113.325954 82.111113 122.909527 76.105365 130.740673 C 72.586870 135.317724 69.295770 140.087050 66.244911 145.026191 C 57.247820 159.584508 47.001877 169.294116 36.550804 169.294116 C 17.553136 169.294116 2.170039 154.714166 2.170039 136.738782 L 2.170039 26.982433 L 2.170039 24.434489 C 2.170039 12.139392 12.275552 2.170039 24.746917 2.170039 C 37.218507 2.170039 47.324871 12.139597 47.324871 24.434489 L 47.324871 121.983303 C 47.324871 122.763329 48.494911 122.763329 48.494911 121.983303 L 48.494911 109.398632 L 47.324871 109.398632 Z" transform="scale(1.000000,1.000000) translate(236.555965,184.029438)" fill="#272729" opacity="1.000000"></path>
        <path d="M 24.207872 7.029022 C 22.034200 3.416444 18.042904 1.000000 13.472116 1.000000 C 6.585457 1.000000 1.000000 6.510382 1.000000 13.303154 C 1.000000 17.126130 2.764160 20.536715 5.534440 22.794313 Z" transform="scale(1.000000,1.000000) translate(213.933113,244.179823)" fill="#dffa74" opacity="1.000000"></path>
        <path d="M 25.294166 7.312427 C 22.956775 3.427752 18.723305 1.000000 14.057136 1.000000 C 6.849355 1.000000 1.000000 6.770304 1.000000 13.888174 C 1.000000 17.787838 2.762704 21.398474 5.749886 23.832834 L 6.489033 22.925832 C 3.771044 20.710847 2.170039 17.431427 2.170039 13.888174 C 2.170039 7.420090 7.492013 2.170039 14.057136 2.170039 C 18.310088 2.170039 22.164465 4.380395 24.291616 7.915657 L 25.294166 7.312427 Z" transform="scale(1.000000,1.000000) translate(213.348094,243.594804)" fill="#272729" opacity="1.000000"></path>
        <path d="M 1.000000 6.105359 C 5.160232 6.105359 8.848941 4.092878 11.120974 1.000000 L 1.000000 6.105359 Z" transform="scale(1.000000,1.000000) translate(226.405229,263.681825)" fill="#dffa74" opacity="1.000000"></path>
        <path d="M 1.000000 7.036727 C 5.240121 7.036727 9.145366 5.023871 11.592451 1.692696 L 10.649496 1.000000 C 8.421014 4.033594 4.864536 5.866687 1.000000 5.866687 L 1.000000 7.036727 Z" transform="scale(1.000000,1.000000) translate(226.405229,263.335477)" fill="#272729" opacity="1.000000"></path>
        <path d="M 1.000000 1.000000 C 9.310823 1.000000 16.598445 5.314785 20.688100 11.800478 L 1.000000 1.000000 Z" transform="scale(1.000000,1.000000) translate(216.650991,265.905754)" fill="#dffa74" opacity="1.000000"></path>
        <path d="M 1.000000 2.170039 C 8.902043 2.170039 16.097183 6.201681 20.193246 12.697535 L 21.182954 12.073460 C 16.874146 5.240217 9.306767 1.000000 1.000000 1.000000 L 1.000000 2.170039 Z" transform="scale(1.000000,1.000000) translate(216.650991,265.320734)" fill="#272729" opacity="1.000000"></path>
        <path d="M 1.000000 45.820092 L 1.000000 23.849469 C 1.000000 11.229659 11.370097 1.000000 24.162974 1.000000 Z" transform="scale(1.000000,1.000000) translate(193.488017,265.903651)" fill="#dffa74" opacity="1.000000"></path>
        <path d="M 2.170039 46.405112 L 2.170039 24.434489 C 2.170039 12.139603 12.276415 2.170039 24.747994 2.170039 L 24.747994 1.000000 C 11.633762 1.000000 1.000000 11.489811 1.000000 24.434489 L 1.000000 46.405112 L 2.170039 46.405112 Z" transform="scale(1.000000,1.000000) translate(192.902997,265.318631)" fill="#272729" opacity="1.000000"></path>
        <path d="M 13.472124 1.000000 C 20.360390 1.000000 25.944354 6.508487 25.944354 13.303580 C 25.944354 20.098560 20.360390 25.607047 13.472124 25.607047 C 6.583964 25.607047 1.000000 20.098560 1.000000 13.303580 C 1.000000 6.508487 6.583964 1.000000 13.472124 1.000000 Z" transform="scale(1.000000,1.000000) translate(128.409838,276.695918)" fill="#dffa74" opacity="1.000000"></path>
        <path d="M 16.536800 2.056800 L 17.840200 2.256300 L 19.098300 2.578700 L 20.304300 3.017500 L 21.451300 3.566000 L 22.533000 4.217900 L 23.542600 4.966500 L 24.473800 5.805400 L 25.320000 6.728400 L 26.074600 7.729000 L 26.730800 8.800700 L 27.282100 9.937200 L 27.721700 11.131600 L 28.042900 12.377400 L 28.238800 13.667200 L 28.303200 14.993600 L 28.231800 16.319700 L 28.029100 17.608000 L 27.701500 18.851100 L 27.256000 20.042500 L 26.699300 21.175300 L 26.038000 22.243100 L 25.278800 23.239600 L 24.428300 24.158100 L 23.493100 24.992500 L 22.479600 25.736400 L 21.394500 26.383000 L 20.244200 26.926200 L 19.035500 27.359200 L 17.775200 27.675500 L 16.470400 27.868600 L 15.128500 27.932100 L 13.786900 27.861900 L 12.483500 27.662400 L 11.225500 27.340000 L 10.019500 26.901100 L 8.872600 26.352600 L 7.790800 25.700800 L 6.781200 24.952200 L 5.850000 24.113300 L 5.003800 23.190300 L 4.249200 22.189700 L 3.593000 21.118000 L 3.041700 19.981500 L 2.602100 18.787000 L 2.281000 17.541400 L 2.085000 16.251600 L 2.020600 14.925100 L 2.092000 13.599000 L 2.294800 12.310800 L 2.622300 11.067600 L 3.067800 9.876200 L 3.624500 8.743400 L 4.285800 7.675600 L 5.045000 6.679100 L 5.895500 5.760600 L 6.830700 4.926200 L 7.844100 4.182300 L 8.929300 3.535600 L 10.079600 2.992400 L 11.288300 2.559500 L 12.548500 2.243200 L 13.853300 2.050100 L 15.128500 1.986600 L 15.195200 1.986600 Z M 13.886700 2.719400 L 12.648300 2.905800 L 11.453100 3.209000 L 10.307200 3.622700 L 9.217000 4.140800 L 8.188600 4.757100 L 7.228500 5.465400 L 6.342800 6.259500 L 5.537800 7.133200 L 4.819800 8.080400 L 4.195100 9.094800 L 3.669900 10.170300 L 3.250500 11.300700 L 2.943200 12.479800 L 2.754200 13.701500 L 2.689800 14.959400 L 2.754200 16.217400 L 2.943200 17.439000 L 3.250500 18.618100 L 3.669900 19.748500 L 4.195100 20.824000 L 4.819800 21.838400 L 5.537800 22.785600 L 6.342800 23.659300 L 7.228500 24.453400 L 8.188600 25.161700 L 9.217000 25.777900 L 10.307200 26.296000 L 11.453100 26.709800 L 12.648300 27.013000 L 13.886700 27.199400 L 15.161900 27.262900 L 16.437100 27.199400 L 17.675500 27.013000 L 18.870800 26.709800 L 20.016700 26.296000 L 21.106900 25.777900 L 22.135300 25.161700 L 23.095400 24.453400 L 23.981100 23.659300 L 24.786100 22.785600 L 25.504100 21.838400 L 26.128800 20.824000 L 26.654000 19.748500 L 27.073400 18.618100 L 27.380800 17.439000 L 27.569700 16.217400 L 27.634100 14.959400 L 27.569700 13.701500 L 27.380800 12.479800 L 27.073400 11.300700 L 26.654000 10.170300 L 26.128800 9.094800 L 25.504100 8.080400 L 24.786100 7.133200 L 23.981100 6.259500 L 23.095400 5.465400 L 22.135300 4.757100 L 21.106900 4.140800 L 20.016700 3.622700 L 18.870800 3.209000 L 17.675500 2.905800 L 16.437100 2.719400 L 15.161900 2.655900 Z" transform="scale(1.000000,1.000000) translate(126.720000,275.040000)" fill="#272729" opacity="1.000000"></path>
        <path d="M 1.000000 1.000000 C 4.385274 3.759509 8.732716 5.420513 13.472124 5.420513 C 17.374138 5.420513 21.008861 4.295606 24.064605 2.353399 Z" transform="scale(1.000000,1.000000) translate(128.409838,303.913610)" fill="#dffa74" opacity="1.000000"></path>
        <path d="M 1.000000 1.906906 C 4.587079 4.830916 9.089807 6.458986 13.841757 6.458986 C 17.764095 6.458986 21.519975 5.352322 24.748050 3.300583 L 24.120426 2.313121 C 21.078800 4.246355 17.540374 5.288946 13.841757 5.288946 C 9.361264 5.288946 5.119134 3.755103 1.739265 1.000000 L 1.000000 1.906906 Z" transform="scale(1.000000,1.000000) translate(128.040205,303.460157)" fill="#272729" opacity="1.000000"></path>
        <path d="M 13.472116 1.000000 C 20.359851 1.000000 25.944248 6.508487 25.944248 13.303468 C 25.944248 20.098560 20.359851 25.607047 13.472116 25.607047 C 6.584389 25.607047 1.000000 20.098560 1.000000 13.303468 C 1.000000 6.508487 6.584389 1.000000 13.472116 1.000000 Z" transform="scale(1.000000,1.000000) translate(164.044617,274.061814)" fill="#dffa74" opacity="1.000000"></path>
        <path d="M 16.171500 1.582700 L 17.474800 1.782200 L 18.732900 2.104600 L 19.938700 2.543400 L 21.085900 3.091900 L 22.167500 3.743800 L 23.177100 4.492400 L 24.108300 5.331300 L 24.954500 6.254300 L 25.709200 7.254900 L 26.365400 8.326600 L 26.916700 9.463000 L 27.356400 10.657600 L 27.677500 11.903200 L 27.873500 13.193000 L 27.937900 14.519400 L 27.866500 15.845600 L 27.663700 17.133700 L 27.336200 18.377000 L 26.890600 19.568200 L 26.333900 20.701200 L 25.672600 21.769000 L 24.913300 22.765500 L 24.062800 23.684000 L 23.127600 24.518400 L 22.114200 25.262300 L 21.029000 25.908900 L 19.878700 26.452100 L 18.670000 26.885100 L 17.409800 27.201300 L 16.105100 27.394500 L 14.763300 27.458000 L 13.421800 27.387800 L 12.118400 27.188200 L 10.860400 26.865900 L 9.654600 26.427000 L 8.507400 25.878500 L 7.425800 25.226800 L 6.416100 24.478100 L 5.484900 23.639200 L 4.638700 22.716200 L 3.884100 21.715600 L 3.227900 20.643900 L 2.676500 19.507300 L 2.236900 18.312800 L 1.915800 17.067200 L 1.719800 15.777400 L 1.655400 14.450900 L 1.726800 13.124800 L 1.929600 11.836700 L 2.257100 10.593500 L 2.702600 9.402100 L 3.259400 8.269300 L 3.920700 7.201500 L 4.679900 6.205000 L 5.530400 5.286500 L 6.465600 4.452000 L 7.479100 3.708200 L 8.564300 3.061500 L 9.714600 2.518300 L 10.923200 2.085400 L 12.183400 1.769100 L 13.488200 1.576000 L 14.763300 1.512500 L 14.830000 1.512500 Z M 13.521600 2.245300 L 12.283200 2.431700 L 11.088000 2.734900 L 9.942200 3.148600 L 8.851900 3.666700 L 7.823600 4.283000 L 6.863400 4.991300 L 5.977700 5.785400 L 5.172700 6.659100 L 4.454700 7.606300 L 3.830000 8.620700 L 3.304700 9.696200 L 2.885300 10.826600 L 2.578000 12.005700 L 2.389000 13.227300 L 2.324600 14.485200 L 2.389000 15.743200 L 2.578000 16.964800 L 2.885300 18.143900 L 3.304700 19.274300 L 3.830000 20.349900 L 4.454700 21.364300 L 5.172700 22.311500 L 5.977700 23.185200 L 6.863400 23.979300 L 7.823600 24.687600 L 8.851900 25.303800 L 9.942200 25.821900 L 11.088000 26.235700 L 12.283200 26.538800 L 13.521600 26.725300 L 14.796700 26.788800 L 16.071800 26.725300 L 17.310100 26.538800 L 18.505400 26.235700 L 19.651200 25.821900 L 20.741500 25.303800 L 21.769800 24.687600 L 22.729900 23.979300 L 23.615600 23.185200 L 24.420600 22.311500 L 25.138700 21.364300 L 25.763400 20.349900 L 26.288600 19.274300 L 26.708100 18.143900 L 27.015400 16.964800 L 27.204400 15.743200 L 27.268800 14.485200 L 27.204400 13.227300 L 27.015400 12.005700 L 26.708100 10.826600 L 26.288600 9.696200 L 25.763400 8.620700 L 25.138700 7.606300 L 24.420600 6.659100 L 23.615600 5.785400 L 22.729900 4.991300 L 21.769800 4.283000 L 20.741500 3.666700 L 19.651200 3.148600 L 18.505400 2.734900 L 17.310100 2.431700 L 16.071800 2.245300 L 14.796700 2.181800 Z" transform="scale(1.000000,1.000000) translate(162.720000,272.880000)" fill="#272729" opacity="1.000000"></path>
        <path d="M 1.000000 1.000000 C 4.385062 3.759505 8.732390 5.420513 13.472116 5.420513 C 17.373599 5.420513 21.008853 4.295602 24.064605 2.353399 Z" transform="scale(1.000000,1.000000) translate(164.044617,301.279505)" fill="#dffa74" opacity="1.000000"></path>
        <path d="M 1.000000 1.906884 C 4.586897 4.830925 9.089536 6.458975 13.841762 6.458975 C 17.763756 6.458975 21.520146 5.352202 24.748062 3.300572 L 24.120441 2.313109 C 21.078975 4.246233 17.540039 5.288935 13.841762 5.288935 C 9.360999 5.288935 5.118971 3.755116 1.739293 1.000000 L 1.000000 1.906884 Z" transform="scale(1.000000,1.000000) translate(163.674971,300.826063)" fill="#272729" opacity="1.000000"></path>
        <path d="M 13.472132 1.000000 C 20.359868 1.000000 25.944248 6.508487 25.944248 13.303572 C 25.944248 20.098552 20.359868 25.607047 13.472132 25.607047 C 6.583320 25.607047 1.000000 20.098552 1.000000 13.303572 C 1.000000 6.508487 6.583320 1.000000 13.472132 1.000000 Z" transform="scale(1.000000,1.000000) translate(199.679707,272.302975)" fill="#dffa74" opacity="1.000000"></path>
        <path d="M 16.526600 1.983800 L 17.829900 2.183400 L 19.088000 2.505800 L 20.293800 2.944600 L 21.441000 3.493100 L 22.522600 4.145000 L 23.532200 4.893600 L 24.463400 5.732500 L 25.309600 6.655400 L 26.064300 7.656000 L 26.720500 8.727800 L 27.271800 9.864300 L 27.711400 11.058700 L 28.032600 12.304400 L 28.228600 13.594200 L 28.293000 14.920700 L 28.221600 16.246800 L 28.018800 17.535100 L 27.691200 18.778200 L 27.245700 19.969500 L 26.689000 21.102300 L 26.027700 22.170300 L 25.268400 23.166500 L 24.417900 24.085300 L 23.482700 24.919500 L 22.469300 25.663400 L 21.384100 26.310100 L 20.233800 26.853300 L 19.025200 27.286200 L 17.764900 27.602500 L 16.460200 27.795700 L 15.118400 27.859200 L 13.776700 27.789000 L 12.473200 27.589400 L 11.215100 27.267000 L 10.009200 26.828200 L 8.862000 26.279700 L 7.780400 25.627800 L 6.770800 24.879300 L 5.839500 24.040300 L 4.993500 23.117300 L 4.238900 22.116800 L 3.582600 21.044900 L 3.031500 19.908500 L 2.591900 18.714100 L 2.270800 17.468500 L 2.074800 16.178600 L 2.010500 14.852200 L 2.081800 13.526000 L 2.284600 12.237900 L 2.612100 10.994700 L 3.057500 9.803400 L 3.614200 8.670500 L 4.275500 7.602600 L 5.034700 6.606300 L 5.885100 5.687700 L 6.820300 4.853300 L 7.833700 4.109400 L 8.918900 3.462700 L 10.069200 2.919500 L 11.277900 2.486600 L 12.538200 2.170300 L 13.843100 1.977100 L 15.118400 1.913600 L 15.185100 1.913600 Z M 13.876500 2.646400 L 12.638000 2.832900 L 11.442700 3.136100 L 10.296800 3.549800 L 9.206500 4.067900 L 8.178200 4.684200 L 7.218100 5.392500 L 6.332400 6.186600 L 5.527500 7.060300 L 4.809500 8.007400 L 4.184800 9.021900 L 3.659700 10.097400 L 3.240300 11.227800 L 2.933000 12.406900 L 2.744000 13.628500 L 2.679700 14.886500 L 2.744000 16.144400 L 2.933000 17.366100 L 3.240300 18.545200 L 3.659700 19.675500 L 4.184800 20.751000 L 4.809500 21.765500 L 5.527500 22.712600 L 6.332400 23.586400 L 7.218100 24.380400 L 8.178200 25.088700 L 9.206500 25.705000 L 10.296800 26.223100 L 11.442700 26.636800 L 12.638000 26.940000 L 13.876500 27.126500 L 15.151800 27.190000 L 16.426900 27.126500 L 17.665200 26.940000 L 18.860500 26.636800 L 20.006300 26.223100 L 21.096600 25.705000 L 22.124900 25.088700 L 23.085000 24.380400 L 23.970700 23.586400 L 24.775700 22.712600 L 25.493800 21.765500 L 26.118500 20.751000 L 26.643700 19.675500 L 27.063100 18.545200 L 27.370500 17.366100 L 27.559500 16.144400 L 27.623900 14.886500 L 27.559500 13.628500 L 27.370500 12.406900 L 27.063100 11.227800 L 26.643700 10.097400 L 26.118500 9.021900 L 25.493800 8.007400 L 24.775700 7.060300 L 23.970700 6.186600 L 23.085000 5.392500 L 22.124900 4.684200 L 21.096600 4.067900 L 20.006300 3.549800 L 18.860500 3.136100 L 17.665200 2.832900 L 16.426900 2.646400 L 15.151800 2.582900 Z" transform="scale(1.000000,1.000000) translate(198.000000,270.720000)" fill="#272729" opacity="1.000000"></path>
        <path d="M 1.000000 1.000000 C 4.385062 3.759505 8.732406 5.420505 13.472132 5.420505 C 17.373599 5.420505 21.008861 4.295602 24.064613 2.353399 Z" transform="scale(1.000000,1.000000) translate(199.679707,299.520667)" fill="#dffa74" opacity="1.000000"></path>
        <path d="M 1.000000 1.906884 C 4.586889 4.830919 9.089544 6.458967 13.841778 6.458967 C 17.763766 6.458967 21.520163 5.352196 24.748070 3.300572 L 24.120449 2.313109 C 21.078993 4.246227 17.540050 5.288927 13.841778 5.288927 C 9.361006 5.288927 5.118963 3.755110 1.739293 1.000000 L 1.000000 1.906884 Z" transform="scale(1.000000,1.000000) translate(199.310061,299.067225)" fill="#272729" opacity="1.000000"></path>
        <path d="M 13.472116 1.000000 C 20.359851 1.000000 25.944248 6.508287 25.944248 13.303163 C 25.944248 20.098038 20.359851 25.606309 13.472116 25.606309 C 6.583320 25.606309 1.000000 20.098038 1.000000 13.303163 C 1.000000 6.508287 6.583320 1.000000 13.472116 1.000000 Z" transform="scale(1.000000,1.000000) translate(247.786929,189.692463)" fill="#dffa74" opacity="1.000000"></path>
        <path d="M 16.393800 2.173300 L 17.697000 2.372900 L 18.955200 2.695200 L 20.161000 3.134000 L 21.308200 3.682500 L 22.389800 4.334300 L 23.399400 5.082800 L 24.330700 5.921800 L 25.176900 6.844800 L 25.931500 7.845300 L 26.587700 8.917000 L 27.139000 10.053400 L 27.578700 11.248000 L 27.899800 12.493600 L 28.095800 13.783300 L 28.160200 15.109800 L 28.088800 16.435900 L 27.886000 17.724000 L 27.558500 18.967300 L 27.112900 20.158500 L 26.556200 21.291300 L 25.894900 22.359100 L 25.135700 23.355500 L 24.285200 24.274100 L 23.349900 25.108500 L 22.336500 25.852200 L 21.251300 26.498900 L 20.101000 27.042100 L 18.892400 27.475000 L 17.632100 27.791300 L 16.327400 27.984400 L 14.985600 28.047900 L 13.643900 27.977700 L 12.340400 27.778200 L 11.082300 27.455800 L 9.876300 27.017000 L 8.729300 26.468500 L 7.647600 25.816700 L 6.638000 25.068100 L 5.706800 24.229100 L 4.860700 23.306200 L 4.106200 22.305700 L 3.450000 21.234000 L 2.898700 20.097500 L 2.459100 18.903100 L 2.138000 17.657400 L 1.942100 16.367700 L 1.877700 15.041300 L 1.949100 13.715100 L 2.151800 12.427100 L 2.479300 11.183900 L 2.924800 9.992500 L 3.481500 8.859700 L 4.142800 7.791900 L 4.901900 6.795600 L 5.752300 5.877000 L 6.687500 5.042500 L 7.700900 4.298800 L 8.786200 3.652100 L 9.936400 3.109000 L 11.145200 2.676000 L 12.405400 2.359800 L 13.710300 2.166600 L 14.985600 2.103100 L 15.052300 2.103100 Z M 13.743700 2.835900 L 12.505200 3.022400 L 11.309900 3.325500 L 10.164000 3.739300 L 9.073800 4.257300 L 8.045400 4.873600 L 7.085300 5.581800 L 6.199600 6.375900 L 5.394700 7.249600 L 4.676800 8.196700 L 4.052100 9.211100 L 3.526900 10.286600 L 3.107500 11.417000 L 2.800200 12.596100 L 2.611300 13.817600 L 2.546900 15.075600 L 2.611300 16.333500 L 2.800200 17.555100 L 3.107500 18.734200 L 3.526900 19.864500 L 4.052100 20.940000 L 4.676800 21.954400 L 5.394700 22.901500 L 6.199600 23.775200 L 7.085300 24.569300 L 8.045400 25.277500 L 9.073800 25.893800 L 10.164000 26.411900 L 11.309900 26.825600 L 12.505200 27.128800 L 13.743700 27.315200 L 15.019000 27.378700 L 16.294100 27.315200 L 17.532400 27.128800 L 18.727700 26.825600 L 19.873500 26.411900 L 20.963800 25.893800 L 21.992100 25.277500 L 22.952200 24.569300 L 23.838000 23.775200 L 24.643000 22.901500 L 25.361000 21.954400 L 25.985700 20.940000 L 26.510900 19.864500 L 26.930400 18.734200 L 27.237700 17.555100 L 27.426700 16.333500 L 27.491100 15.075600 L 27.426700 13.817600 L 27.237700 12.596100 L 26.930400 11.417000 L 26.510900 10.286600 L 25.985700 9.211100 L 25.361000 8.196700 L 24.643000 7.249600 L 23.838000 6.375900 L 22.952200 5.581800 L 21.992100 4.873600 L 20.963800 4.257300 L 19.873500 3.739300 L 18.727700 3.325500 L 17.532400 3.022400 L 16.294100 2.835900 L 15.019000 2.772400 Z" transform="scale(1.000000,1.000000) translate(246.240000,187.920000)" fill="#272729" opacity="1.000000"></path>
        <path d="M 1.000000 1.000000 C 4.385062 3.759400 8.732390 5.420505 13.472116 5.420505 C 17.373599 5.420505 21.008861 4.295915 24.064613 2.352869 Z" transform="scale(1.000000,1.000000) translate(247.786929,216.909850)" fill="#dffa74" opacity="1.000000"></path>
        <path d="M 1.000000 1.906898 C 4.586982 4.830897 9.089628 6.458974 13.841754 6.458974 C 17.764407 6.458974 21.520815 5.352144 24.748159 3.299988 L 24.120344 2.312648 C 21.079521 4.246201 17.540648 5.288934 13.841754 5.288934 C 9.361089 5.288934 5.119047 3.755087 1.739276 1.000000 L 1.000000 1.906898 Z" transform="scale(1.000000,1.000000) translate(247.417291,216.456401)" fill="#272729" opacity="1.000000"></path>
        <path d="M 1.336626 10.829036 L 30.325615 2.120569 L 29.988990 1.000000 L 1.000000 9.708466 L 1.336626 10.829036 Z" transform="scale(1.000000,1.000000) translate(286.460221,189.913827)" fill="#f2ece9" opacity="1.000000"></path>
        <path d="M 1.000000 2.163064 L 20.545886 4.307036 L 20.673462 3.143973 L 1.127576 1.000000 L 1.000000 2.163064 Z" transform="scale(1.000000,1.000000) translate(288.417657,205.043495)" fill="#f2ece9" opacity="1.000000"></path>
        <path d="M 1.699043 8.064061 L 9.921131 1.938260 L 9.222088 1.000000 L 1.000000 7.125801 L 1.699043 8.064061 Z" transform="scale(1.000000,1.000000) translate(283.437095,186.913139)" fill="#f2ece9" opacity="1.000000"></path>
        <path d="M 28.653678 11.946642 C 52.773981 -4.899778 84.044988 -1.761330 104.669645 17.645778 C 105.744283 16.688862 106.860876 15.787624 108.071054 14.943606 C 124.606928 3.390329 146.966168 8.061858 158.004611 25.371544 C 159.374531 27.524490 160.518552 29.790336 161.418922 32.098287 C 175.266586 27.679495 190.795579 33.013046 199.252323 46.256056 C 204.857866 55.051534 206.189057 65.536744 203.742873 75.007816 C 208.085007 76.471750 211.997896 79.398024 214.726460 83.676977 C 221.140388 93.725860 218.544164 107.319262 208.945023 114.032562 C 199.345908 120.745861 186.358260 118.030219 179.945931 107.981310 C 178.466300 105.659889 177.485246 103.154827 176.947914 100.578998 C 175.536040 100.831710 174.124166 101.001855 172.699390 101.057431 C 170.763110 103.549023 168.450865 105.771066 165.775558 107.644387 C 151.361533 117.706765 131.893799 113.638341 122.281758 98.552369 C 121.205519 96.864359 120.305148 95.119052 119.566120 93.316524 C 114.927105 103.857310 107.546649 113.230650 97.637701 120.141060 C 69.095245 140.082176 30.508326 132.017791 11.458179 102.140664 C -7.592756 72.263538 0.110914 31.874237 28.653678 11.931476 L 28.653678 11.946642 Z" transform="scale(1.000000,1.000000) translate(74.000000,23.999936)" fill="#f2ece9" opacity="1.000000"></path>
        <path d="M 66.774200 2.058300 L 69.321500 2.214500 L 71.858500 2.478100 L 74.381600 2.848500 L 76.887800 3.324800 L 79.373600 3.906500 L 81.835900 4.592700 L 84.271200 5.382900 L 86.676200 6.276300 L 89.047900 7.272300 L 91.382700 8.370100 L 93.677500 9.569100 L 95.928800 10.868400 L 98.133400 12.267600 L 100.288100 13.765700 L 102.389400 15.362300 L 104.434100 17.056400 L 105.964300 18.436600 L 107.198400 17.395400 L 108.981500 16.064500 L 110.577600 15.010500 L 112.205700 14.052300 L 113.862500 13.189600 L 115.544700 12.421500 L 117.249000 11.747700 L 118.972400 11.167200 L 120.711300 10.679700 L 122.462600 10.284300 L 124.223100 9.980600 L 125.989600 9.767700 L 127.758700 9.645100 L 129.527300 9.612000 L 131.292300 9.667700 L 133.050200 9.811800 L 134.798000 10.043200 L 136.532500 10.361500 L 138.250500 10.766000 L 139.948700 11.256000 L 141.624100 11.830700 L 143.273200 12.489600 L 144.893100 13.231900 L 146.480500 14.057000 L 148.032000 14.964200 L 149.544800 15.952700 L 151.015200 17.022000 L 152.440400 18.171100 L 153.816800 19.399600 L 155.141600 20.706600 L 156.411300 22.091500 L 157.622800 23.553300 L 158.772900 25.091600 L 159.858500 26.705600 L 160.859500 28.368800 L 161.772500 30.068300 L 162.596200 31.797500 L 163.084900 32.965300 L 163.838600 32.742400 L 165.177200 32.407300 L 166.522400 32.129700 L 167.872900 31.909500 L 169.226800 31.746100 L 170.582500 31.639400 L 171.938500 31.588900 L 173.293000 31.594400 L 174.644400 31.655500 L 175.991100 31.771700 L 177.331200 31.942900 L 178.663600 32.168500 L 179.986200 32.448300 L 181.297500 32.782000 L 182.595900 33.169000 L 183.879700 33.609300 L 185.147400 34.102200 L 186.397200 34.647700 L 187.627500 35.245200 L 188.836800 35.894300 L 190.023400 36.595000 L 191.185500 37.346600 L 192.321600 38.148800 L 193.430000 39.001300 L 194.509100 39.903700 L 195.557400 40.855700 L 196.572900 41.856900 L 197.554200 42.906800 L 198.499700 44.005200 L 199.407500 45.151500 L 200.276200 46.345500 L 201.106800 47.591100 L 202.125500 49.290800 L 203.043100 51.026800 L 203.860000 52.795000 L 204.577100 54.591400 L 205.195100 56.411800 L 205.714700 58.252200 L 206.136800 60.108700 L 206.461900 61.976900 L 206.691100 63.853100 L 206.824800 65.733200 L 206.864000 67.613200 L 206.809300 69.489000 L 206.661600 71.356700 L 206.421500 73.212400 L 206.089800 75.052000 L 205.807000 76.272000 L 206.921100 76.701700 L 208.528300 77.481500 L 210.075500 78.400000 L 211.542400 79.446800 L 212.252700 80.025300 L 212.942500 80.637500 L 213.610200 81.283400 L 214.254600 81.962600 L 214.875100 82.674900 L 215.470000 83.420300 L 216.038200 84.198200 L 216.579900 85.010500 L 217.171400 85.991400 L 217.708800 86.991900 L 218.192700 88.009800 L 218.623200 89.043100 L 219.001000 90.089800 L 219.326200 91.148000 L 219.599200 92.215600 L 219.820600 93.290500 L 219.990600 94.371200 L 220.109600 95.455300 L 220.178200 96.541000 L 220.196500 97.626500 L 220.165000 98.709600 L 220.084200 99.788500 L 219.954200 100.861200 L 219.775700 101.926000 L 219.548800 102.980500 L 219.274100 104.023400 L 218.951700 105.052300 L 218.582000 106.065400 L 218.165600 107.060700 L 217.702600 108.036300 L 217.193400 108.990200 L 216.638400 109.920400 L 216.038000 110.825000 L 215.392400 111.702100 L 214.702200 112.549300 L 213.967700 113.365100 L 213.189200 114.147100 L 212.367300 114.893500 L 211.502200 115.602200 L 210.594700 116.271100 L 209.655700 116.891400 L 208.697800 117.455200 L 207.722800 117.963000 L 206.732700 118.414900 L 205.729500 118.811500 L 204.715100 119.153000 L 203.691300 119.439900 L 202.660300 119.672400 L 201.623800 119.851000 L 200.583800 119.976100 L 199.542200 120.048100 L 198.501100 120.067300 L 197.462000 120.034200 L 196.427100 119.949100 L 195.398100 119.812500 L 194.377200 119.624800 L 193.365800 119.386500 L 192.366300 119.097900 L 191.380100 118.759300 L 190.409400 118.371200 L 189.456100 117.934100 L 188.521800 117.448300 L 187.608800 116.914200 L 186.718600 116.332200 L 185.853300 115.702900 L 185.014700 115.026700 L 184.204900 114.303700 L 183.425700 113.534800 L 182.678800 112.720200 L 181.966400 111.860400 L 181.290200 110.956000 L 180.652500 110.007900 L 180.105300 109.101800 L 179.605600 108.179300 L 179.152700 107.241900 L 178.746200 106.290900 L 178.385300 105.328200 L 178.069200 104.354700 L 177.797400 103.372100 L 177.714100 103.011800 L 176.172800 103.238900 L 175.084900 103.343500 L 174.314400 103.388700 L 173.741100 104.098600 L 172.945700 105.012300 L 172.114500 105.898600 L 171.247800 106.756000 L 170.345700 107.583900 L 169.408500 108.381200 L 168.436300 109.147100 L 167.424700 109.883400 L 166.029700 110.803700 L 164.606900 111.640300 L 163.159000 112.393700 L 161.689000 113.064400 L 160.199700 113.652800 L 158.694000 114.159500 L 157.174600 114.585300 L 155.644600 114.930400 L 154.106500 115.195500 L 152.563400 115.381300 L 151.017900 115.488200 L 149.472900 115.516900 L 147.931400 115.467900 L 146.395900 115.341900 L 144.869300 115.139400 L 143.354500 114.861100 L 141.854100 114.507500 L 140.371000 114.079200 L 138.908000 113.576800 L 137.467800 113.000900 L 136.053300 112.352100 L 134.667300 111.630900 L 133.312500 110.838200 L 131.991600 109.974200 L 130.707800 109.039800 L 129.463500 108.035500 L 128.261700 106.961900 L 127.105200 105.819800 L 125.996800 104.609600 L 124.939100 103.332200 L 123.935300 101.988100 L 122.988700 100.579700 L 122.199400 99.276900 L 121.475700 97.952100 L 120.830600 96.634100 L 120.543600 97.258200 L 119.567600 99.210900 L 118.527300 101.132100 L 117.422900 103.020100 L 116.254900 104.872700 L 115.023400 106.688500 L 113.728800 108.464900 L 112.371500 110.200600 L 110.951600 111.893200 L 109.469700 113.541000 L 107.925800 115.141900 L 106.320500 116.694200 L 104.654100 118.195800 L 102.926700 119.644800 L 101.138900 121.039300 L 99.294300 122.375000 L 97.934700 123.298800 L 96.560800 124.181400 L 95.173200 125.022800 L 93.772900 125.823200 L 92.360200 126.582900 L 90.935900 127.301800 L 89.501000 127.980000 L 88.055900 128.617900 L 86.601200 129.215500 L 85.137800 129.772800 L 83.666400 130.290200 L 82.187500 130.767500 L 80.702000 131.205300 L 79.210500 131.603300 L 77.713700 131.961900 L 76.212300 132.281200 L 74.706900 132.561300 L 73.198400 132.802300 L 71.687100 133.004400 L 70.174100 133.167700 L 68.660000 133.292400 L 67.145300 133.378700 L 65.630900 133.426600 L 64.117300 133.436400 L 62.605300 133.408000 L 61.087300 133.341200 L 58.077400 133.095200 L 55.084800 132.699300 L 52.115000 132.154800 L 49.173400 131.462700 L 46.265500 130.624200 L 43.396800 129.640500 L 40.572700 128.512700 L 37.806300 127.245700 L 36.439700 126.557300 L 35.087800 125.833600 L 33.751100 125.074700 L 32.430500 124.280800 L 31.126400 123.452100 L 29.839600 122.588600 L 28.570900 121.690600 L 27.320800 120.758200 L 26.090100 119.791500 L 24.879700 118.790600 L 23.689900 117.755800 L 22.521600 116.687200 L 21.375300 115.584900 L 20.251900 114.449000 L 19.152000 113.279800 L 18.076300 112.077300 L 17.025500 110.841800 L 16.000300 109.573500 L 15.001300 108.272300 L 14.029200 106.938400 L 13.084800 105.572200 L 12.168700 104.173700 L 11.286700 102.751400 L 10.444100 101.314200 L 9.640700 99.862900 L 8.876700 98.398300 L 8.151500 96.920800 L 7.465400 95.431400 L 6.818000 93.930800 L 6.209200 92.419600 L 5.638900 90.898600 L 5.107000 89.368600 L 4.613300 87.830100 L 4.157700 86.284000 L 3.740100 84.731000 L 3.358600 83.164100 L 2.712100 80.029900 L 2.215300 76.879400 L 1.866900 73.718300 L 1.665900 70.552500 L 1.611200 67.387400 L 1.701600 64.229000 L 1.936100 61.082800 L 2.313700 57.954600 L 2.833000 54.850000 L 3.493300 51.774800 L 4.293200 48.734500 L 5.231900 45.734900 L 6.308200 42.782000 L 7.521000 39.881000 L 8.869200 37.037800 L 10.351900 34.258400 L 11.963400 31.554900 L 12.820800 30.227500 L 13.711300 28.919500 L 14.634400 27.631800 L 15.590300 26.365100 L 16.578600 25.119800 L 17.599400 23.897000 L 18.652400 22.697200 L 19.737500 21.521400 L 20.854500 20.369900 L 22.003400 19.243700 L 23.183900 18.143500 L 24.396000 17.070000 L 25.639600 16.023800 L 26.914300 15.005900 L 28.220200 14.016700 L 29.542800 13.067100 L 29.644300 13.014000 L 31.868300 11.532300 L 34.214000 10.113200 L 36.595700 8.811000 L 39.010100 7.625000 L 41.453900 6.554400 L 43.923700 5.598900 L 46.416100 4.757500 L 48.927900 4.029700 L 51.455800 3.414900 L 53.996400 2.912200 L 56.546400 2.521100 L 59.102500 2.240800 L 61.661300 2.070700 L 64.219700 2.010100 Z M 61.677400 2.740600 L 59.147200 2.909400 L 56.619700 3.187200 L 54.098200 3.574500 L 51.586100 4.072200 L 49.086500 4.680800 L 46.602800 5.401100 L 44.138200 6.233700 L 41.695900 7.179300 L 39.279200 8.238700 L 36.891300 9.412400 L 34.535600 10.701100 L 32.215300 12.105600 L 29.933600 13.626500 L 29.933600 13.611400 L 28.611000 14.561000 L 27.319000 15.540000 L 26.057800 16.547400 L 24.827500 17.582700 L 23.628300 18.645100 L 22.460300 19.733900 L 21.323700 20.848400 L 20.218500 21.987900 L 19.144900 23.151600 L 18.103100 24.339000 L 17.093100 25.549200 L 16.115200 26.781600 L 15.169400 28.035400 L 14.255900 29.309900 L 13.374800 30.604500 L 12.526300 31.918400 L 10.927500 34.601400 L 9.460500 37.353100 L 8.126500 40.168000 L 6.926500 43.040300 L 5.861500 45.964300 L 4.932800 48.934500 L 4.141400 51.945200 L 3.488200 54.990600 L 2.974600 58.065100 L 2.601400 61.163000 L 2.369800 64.278700 L 2.281000 67.406500 L 2.335900 70.540800 L 2.535600 73.675800 L 2.881300 76.805900 L 3.374000 79.925400 L 4.014800 83.028700 L 4.391100 84.572400 L 4.804800 86.110000 L 5.256000 87.640700 L 5.745000 89.163800 L 6.271800 90.678600 L 6.836600 92.184300 L 7.439500 93.680400 L 8.080600 95.165900 L 8.760100 96.640400 L 9.478200 98.103000 L 10.234800 99.553000 L 11.030300 100.989700 L 11.864700 102.412500 L 12.738100 103.820600 L 13.645300 105.205000 L 14.580400 106.557400 L 15.542800 107.877600 L 16.531800 109.165400 L 17.546600 110.420600 L 18.586700 111.643200 L 19.651400 112.833000 L 20.739900 113.989900 L 21.851700 115.113700 L 22.986000 116.204200 L 24.142100 117.261400 L 25.319400 118.285000 L 26.517100 119.275100 L 27.734700 120.231300 L 28.971500 121.153500 L 30.226700 122.041700 L 31.499700 122.895700 L 32.789800 123.715300 L 34.096300 124.500400 L 35.418600 125.250900 L 36.755900 125.966600 L 38.107700 126.647300 L 40.851700 127.903500 L 43.645200 129.018200 L 46.482700 129.990400 L 49.358900 130.818900 L 52.268300 131.502600 L 55.205500 132.040300 L 58.165100 132.431000 L 61.141700 132.673400 L 62.634600 132.738700 L 64.129800 132.766500 L 65.626500 132.756600 L 67.124100 132.709000 L 68.621900 132.623500 L 70.119100 132.500000 L 71.615200 132.338300 L 73.109500 132.138200 L 74.601200 131.899700 L 76.089700 131.622500 L 77.574300 131.306600 L 79.054400 130.951800 L 80.529200 130.558000 L 81.998100 130.124900 L 83.460500 129.652600 L 84.915500 129.140800 L 86.362700 128.589400 L 87.801200 127.998200 L 89.230400 127.367100 L 90.649600 126.696100 L 92.058200 125.984800 L 93.455500 125.233200 L 94.840700 124.441200 L 96.213300 123.608600 L 97.572500 122.735200 L 98.917700 121.820900 L 100.745900 120.496700 L 102.514600 119.116600 L 104.223400 117.682600 L 105.871900 116.196600 L 107.460000 114.660400 L 108.987300 113.076000 L 110.453400 111.445300 L 111.858100 109.770100 L 113.201000 108.052300 L 114.481900 106.294000 L 115.700300 104.496800 L 116.856100 102.662900 L 117.948900 100.793900 L 118.978400 98.892000 L 119.944200 96.958800 L 120.846100 94.996400 L 121.430800 96.337600 L 122.077400 97.657300 L 122.787300 98.955500 L 123.561700 100.232300 L 124.491300 101.614200 L 125.475800 102.931000 L 126.512700 104.182100 L 127.599100 105.367000 L 128.732300 106.485000 L 129.909700 107.535600 L 131.128400 108.518200 L 132.385700 109.432300 L 133.679000 110.277300 L 135.005400 111.052500 L 136.362300 111.757600 L 137.746900 112.391800 L 139.156500 112.954600 L 140.588300 113.445400 L 142.039700 113.863700 L 143.507900 114.208900 L 144.990100 114.480400 L 146.483700 114.677700 L 147.985900 114.800100 L 149.493900 114.847200 L 151.005100 114.818300 L 152.516800 114.712900 L 154.026100 114.530400 L 155.530400 114.270200 L 157.026900 113.931800 L 158.512900 113.514500 L 159.985700 113.017900 L 161.442500 112.441400 L 162.880600 111.784300 L 164.297300 111.046100 L 165.689800 110.226300 L 167.055500 109.324300 L 168.041700 108.605600 L 168.993700 107.855100 L 169.911400 107.073800 L 170.794600 106.262600 L 171.643100 105.422500 L 172.456800 104.554200 L 173.235600 103.658900 L 173.979300 102.737300 L 175.045700 102.674700 L 176.108400 102.572000 L 178.227900 102.258900 L 178.450300 103.221300 L 178.714900 104.175700 L 179.022500 105.120900 L 179.373500 106.055400 L 179.768700 106.978100 L 180.208800 107.887500 L 180.694300 108.782300 L 181.225900 109.661200 L 181.846000 110.581700 L 182.502800 111.458900 L 183.194500 112.292400 L 183.919300 113.081700 L 184.675200 113.826500 L 185.460600 114.526500 L 186.273600 115.181100 L 187.112300 115.790100 L 187.975000 116.353100 L 188.859700 116.869700 L 189.764800 117.339400 L 190.688300 117.762000 L 191.628400 118.137000 L 192.583400 118.464000 L 193.551300 118.742700 L 194.530400 118.972600 L 195.518800 119.153500 L 196.514800 119.284900 L 197.516400 119.366400 L 198.521900 119.397600 L 199.529400 119.378200 L 200.537100 119.307700 L 201.543300 119.185900 L 202.546000 119.012200 L 203.543400 118.786400 L 204.533800 118.508000 L 205.515200 118.176700 L 206.485900 117.792000 L 207.444100 117.353700 L 208.387900 116.861200 L 209.315400 116.314300 L 210.225000 115.712400 L 211.104300 115.063200 L 211.942300 114.375600 L 212.738400 113.651500 L 213.492500 112.892800 L 214.204000 112.101400 L 214.872700 111.279300 L 215.498100 110.428300 L 216.079900 109.550300 L 216.617800 108.647300 L 217.111300 107.721200 L 217.560100 106.773900 L 217.963800 105.807200 L 218.322100 104.823100 L 218.634600 103.823500 L 218.900800 102.810300 L 219.120600 101.785500 L 219.293400 100.750900 L 219.419000 99.708400 L 219.496900 98.660000 L 219.526800 97.607500 L 219.508300 96.552800 L 219.441000 95.498000 L 219.324700 94.444800 L 219.158800 93.395200 L 218.943100 92.351200 L 218.677200 91.314500 L 218.360700 90.287100 L 217.993200 89.271000 L 217.574400 88.268000 L 217.103900 87.280000 L 216.581400 86.309000 L 216.006400 85.356900 L 215.481100 84.570400 L 214.929200 83.815900 L 214.351700 83.093300 L 213.749700 82.403000 L 213.124500 81.745000 L 212.477000 81.119500 L 211.808300 80.526700 L 211.119700 79.966700 L 209.686800 78.945800 L 208.187100 78.058100 L 206.629500 77.305000 L 205.022800 76.687700 L 205.437100 74.900700 L 205.762100 73.093800 L 205.997100 71.271100 L 206.141400 69.436500 L 206.194300 67.594000 L 206.155000 65.747500 L 206.022800 63.901000 L 205.796900 62.058500 L 205.476800 60.223900 L 205.061500 58.401100 L 204.550400 56.594200 L 203.942800 54.807100 L 203.237900 53.043800 L 202.435000 51.308200 L 201.533300 49.604200 L 200.532300 47.935900 L 199.719000 46.717600 L 198.865900 45.546000 L 197.974600 44.421400 L 197.046600 43.344200 L 196.083600 42.314600 L 195.087200 41.333100 L 194.058900 40.399900 L 193.000400 39.515500 L 191.913400 38.680100 L 190.799300 37.894100 L 189.659800 37.157800 L 188.496400 36.471500 L 187.310900 35.835700 L 186.104800 35.250600 L 184.879700 34.716500 L 183.637200 34.233900 L 182.378900 33.803000 L 181.106400 33.424200 L 179.821300 33.097800 L 178.525200 32.824100 L 177.219700 32.603600 L 175.906500 32.436400 L 174.587100 32.323100 L 173.263100 32.263800 L 171.936100 32.259000 L 170.607800 32.309000 L 169.279700 32.414100 L 167.953500 32.574700 L 166.630600 32.791000 L 165.312900 33.063500 L 164.001700 33.392400 L 162.698900 33.778200 L 161.978200 32.056200 L 161.167800 30.356700 L 160.269400 28.686200 L 159.284600 27.051400 L 158.217100 25.465800 L 157.086400 23.954800 L 155.895600 22.519300 L 154.648000 21.159700 L 153.346500 19.876800 L 151.994500 18.671300 L 150.594900 17.543800 L 149.151000 16.494900 L 147.665800 15.525300 L 146.142600 14.635600 L 144.584400 13.826600 L 142.994400 13.098900 L 141.375800 12.453100 L 139.731600 11.889900 L 138.065100 11.409900 L 136.379300 11.013800 L 134.677400 10.702300 L 132.962600 10.476100 L 131.237900 10.335600 L 129.506500 10.281800 L 127.771600 10.315100 L 126.036300 10.436200 L 124.303600 10.645800 L 122.576900 10.944600 L 120.859200 11.333300 L 119.153600 11.812300 L 117.463300 12.382600 L 115.791400 13.044500 L 114.141100 13.799000 L 112.515500 14.646500 L 110.917800 15.587800 L 109.351000 16.623500 L 107.599500 17.932200 L 105.949600 19.325700 L 103.985400 17.554000 L 101.962100 15.878400 L 99.882900 14.299400 L 97.751100 12.817900 L 95.569900 11.434300 L 93.342700 10.149500 L 91.072600 8.964100 L 88.763000 7.878800 L 86.417000 6.894200 L 84.038100 6.011100 L 81.629300 5.230100 L 79.193900 4.552000 L 76.735300 3.977300 L 74.256700 3.506800 L 71.761400 3.141100 L 69.252500 2.881000 L 66.733400 2.727100 L 64.207300 2.680100 Z" transform="scale(1.000000,1.000000) translate(72.720000,22.320000)" fill="#272729" opacity="1.000000"></path>
        <path d="M 1.000000 1.229323 C 7.297539 8.944716 18.648094 10.773069 27.164203 5.174327 C 28.946537 3.997151 30.478688 2.582208 31.734991 1.000000 Z" transform="scale(1.000000,1.000000) translate(205.684286,92.119362)" fill="#f2ece9" opacity="1.000000"></path>
        <path d="M 1.000000 13.333448 C 15.944115 21.935446 39.474788 20.227358 55.228037 9.301301 C 58.508975 7.017217 61.277015 4.464384 63.457286 1.729332 L 62.542372 1.000000 C 60.434705 3.643973 57.750037 6.119917 54.560375 8.340458 C 39.168804 19.015663 16.123261 20.688536 1.583696 12.319402 L 1.000000 13.333448 Z" transform="scale(1.000000,1.000000) translate(135.890181,95.468396)" fill="#272729" opacity="1.000000"></path>
        <path d="M 22.630823 11.420471 C 22.203153 10.392645 21.668557 9.391144 21.027036 8.432792 C 16.572782 1.850400 8.207419 -0.610220 1.000000 2.061872 Z" transform="scale(1.000000,1.000000) translate(233.479000,62.731309)" fill="#f2ece9" opacity="1.000000"></path>
        <path d="M 35.724221 17.124694 C 35.030566 15.519392 34.168765 13.971263 33.147370 12.501967 C 26.087943 2.456254 12.732782 -1.543980 1.000000 2.644675 L 1.393392 3.746598 C 12.637983 -0.267771 25.437841 3.566135 32.188362 13.172255 C 33.163643 14.575230 33.987456 16.055117 34.650163 17.588797 L 35.724221 17.124694 Z" transform="scale(1.000000,1.000000) translate(233.282304,63.204333)" fill="#272729" opacity="1.000000"></path>
        <path d="M 1.000000 1.000000 C 1.258749 1.528120 1.551710 2.045709 1.890645 2.547503 C 5.668105 8.127334 13.311744 9.630629 18.968838 5.912860 C 19.298164 5.702447 19.610360 5.473124 19.904381 5.236418 Z" transform="scale(1.000000,1.000000) translate(247.073770,96.002276)" fill="#f2ece9" opacity="1.000000"></path>
        <path d="M 1.000000 1.595916 C 1.385780 2.247765 1.807594 2.857033 2.276451 3.431683 C 7.659869 10.014834 18.492446 11.780930 26.523358 7.411666 C 26.967636 7.176718 27.412217 6.909542 27.856319 6.613558 L 27.207425 5.639942 C 26.795052 5.914780 26.384175 6.161701 25.970244 6.380643 C 18.413948 10.491643 8.199389 8.826306 3.182613 2.691505 C 2.752151 2.163913 2.363608 1.602703 2.006914 1.000000 L 1.000000 1.595916 Z" transform="scale(1.000000,1.000000) translate(215.428880,99.248804)" fill="#272729" opacity="1.000000"></path>
        <path d="M 10.237817 1.000000 C 15.340004 1.000000 19.476711 5.080711 19.476711 10.113481 C 19.476711 15.147311 15.340004 19.226978 10.237817 19.226978 C 5.135630 19.226978 1.000000 15.147311 1.000000 10.113481 C 1.000000 5.080711 5.135630 1.000000 10.237817 1.000000 Z" transform="scale(1.000000,1.000000) translate(209.710869,116.654126)" fill="#f2ece9" opacity="1.000000"></path>
        <path d="M 12.912900 1.838500 L 13.895200 1.989700 L 14.843400 2.233500 L 15.752300 2.565100 L 16.616700 2.979300 L 17.431800 3.471400 L 18.192500 4.036300 L 18.894100 4.669400 L 19.531600 5.365900 L 20.100100 6.120900 L 20.594500 6.929700 L 21.009500 7.787200 L 21.340400 8.688600 L 21.581900 9.628500 L 21.728900 10.601500 L 21.776600 11.601800 L 21.721900 12.601900 L 21.568100 13.573400 L 21.320200 14.510800 L 20.983400 15.409200 L 20.562900 16.263100 L 20.063500 17.068100 L 19.490400 17.818800 L 18.848600 18.510900 L 18.143000 19.139400 L 17.378400 19.699500 L 16.559900 20.186300 L 15.692200 20.595200 L 14.780500 20.920800 L 13.830200 21.158400 L 12.846500 21.303200 L 11.835200 21.350300 L 10.824300 21.296500 L 9.842100 21.145300 L 8.893900 20.901600 L 7.985000 20.570100 L 7.120700 20.155900 L 6.305800 19.664000 L 5.545000 19.099000 L 4.843500 18.465900 L 4.206200 17.769500 L 3.637800 17.014500 L 3.143600 16.205800 L 2.728400 15.348200 L 2.397700 14.446700 L 2.156300 13.506800 L 2.009300 12.533700 L 1.961600 11.533300 L 2.016300 10.533300 L 2.170100 9.562000 L 2.417800 8.624600 L 2.754500 7.726400 L 3.175100 6.872300 L 3.674400 6.067500 L 4.247300 5.316700 L 4.889000 4.624600 L 5.594600 3.996100 L 6.359100 3.435800 L 7.177500 2.948900 L 8.045100 2.540000 L 8.956700 2.214300 L 9.907000 1.976600 L 10.890700 1.831800 L 11.835200 1.784800 L 11.901800 1.784800 Z M 10.924100 2.501100 L 10.006800 2.639200 L 9.121500 2.863800 L 8.272700 3.170300 L 7.465200 3.554100 L 6.703600 4.010600 L 5.992400 4.535300 L 5.336400 5.123500 L 4.740200 5.770700 L 4.208400 6.472300 L 3.745700 7.223700 L 3.356700 8.020400 L 3.046100 8.857700 L 2.818500 9.731000 L 2.678500 10.635800 L 2.630800 11.567600 L 2.678500 12.499500 L 2.818500 13.404400 L 3.046100 14.277800 L 3.356700 15.115200 L 3.745700 15.911800 L 4.208400 16.663300 L 4.740200 17.364800 L 5.336400 18.012000 L 5.992400 18.600200 L 6.703600 19.124800 L 7.465200 19.581200 L 8.272700 19.965000 L 9.121500 20.271400 L 10.006800 20.495900 L 10.924100 20.634000 L 11.868600 20.681100 L 12.813200 20.634000 L 13.730500 20.495900 L 14.615900 20.271400 L 15.464700 19.965000 L 16.272300 19.581200 L 17.034100 19.124800 L 17.745300 18.600200 L 18.401400 18.012000 L 18.997700 17.364800 L 19.529600 16.663300 L 19.992400 15.911800 L 20.381400 15.115200 L 20.692100 14.277800 L 20.919800 13.404400 L 21.059800 12.499500 L 21.107500 11.567600 L 21.059800 10.635800 L 20.919800 9.731000 L 20.692100 8.857700 L 20.381400 8.020400 L 19.992400 7.223700 L 19.529600 6.472300 L 18.997700 5.770700 L 18.401400 5.123500 L 17.745300 4.535300 L 17.034100 4.010600 L 16.272300 3.554100 L 15.464700 3.170300 L 14.615900 2.863800 L 13.730500 2.639200 L 12.813200 2.501100 L 11.868600 2.454100 Z" transform="scale(1.000000,1.000000) translate(208.080000,115.200000)" fill="#272729" opacity="1.000000"></path>
        <path d="M 15.619065 1.000000 C 23.692527 1.000000 30.238113 7.457184 30.238113 15.421885 C 30.238113 23.386586 23.692527 29.843770 15.619065 29.843770 C 7.544526 29.843770 1.000000 23.386586 1.000000 15.421885 C 1.000000 7.457184 7.544526 1.000000 15.619065 1.000000 Z" transform="scale(1.000000,1.000000) translate(192.811223,127.147845)" fill="#f2ece9" opacity="1.000000"></path>
        <path d="M 17.712600 2.218400 L 18.504600 2.279700 L 20.021100 2.511300 L 21.484800 2.885900 L 22.888000 3.396000 L 24.222800 4.033700 L 25.481400 4.791700 L 26.656400 5.662200 L 27.740000 6.637900 L 28.724800 7.711300 L 29.603000 8.875000 L 30.366800 10.121400 L 31.008500 11.443100 L 31.520300 12.832100 L 31.894400 14.280700 L 32.121800 15.763600 L 32.180100 16.530400 L 32.199100 17.306800 L 32.178300 18.083300 L 32.115900 18.866600 L 31.880600 20.365100 L 31.500100 21.811200 L 30.982400 23.197200 L 30.335300 24.515200 L 29.566400 25.757700 L 28.683600 26.917200 L 27.694500 27.986200 L 26.606800 28.957300 L 25.428100 29.823200 L 24.165900 30.576000 L 22.828000 31.208400 L 21.422000 31.712600 L 19.956100 32.081100 L 18.455000 32.305200 L 17.679200 32.362600 L 16.893400 32.381400 L 16.107700 32.360900 L 15.315600 32.299600 L 13.799000 32.068000 L 12.335100 31.693400 L 10.932000 31.183300 L 9.597100 30.545600 L 8.338500 29.787600 L 7.163500 28.917000 L 6.080000 27.941400 L 5.095200 26.867900 L 4.217100 25.704300 L 3.453400 24.457900 L 2.811600 23.136200 L 2.300000 21.747100 L 1.926000 20.298500 L 1.698500 18.815600 L 1.640300 18.048900 L 1.621300 17.272500 L 1.642100 16.496100 L 1.704400 15.712700 L 1.939800 14.214200 L 2.320100 12.768100 L 2.837800 11.382100 L 3.484900 10.064100 L 4.253700 8.821600 L 5.136400 7.662000 L 6.125400 6.593100 L 7.213100 5.621900 L 8.391800 4.756100 L 9.654000 4.003300 L 10.992000 3.370900 L 12.397900 2.866700 L 13.864000 2.498200 L 15.365200 2.274100 L 16.141100 2.216700 L 16.893400 2.197900 L 16.926900 2.197900 Z M 16.157900 2.886600 L 15.415400 2.942300 L 13.963800 3.160800 L 12.562700 3.516200 L 11.219600 4.001200 L 9.941600 4.608500 L 8.736300 5.330900 L 7.610900 6.161100 L 6.572800 7.092000 L 5.629200 8.116100 L 4.787700 9.226400 L 4.055500 10.415500 L 3.439900 11.676200 L 2.948400 13.001200 L 2.588200 14.383200 L 2.366600 15.815200 L 2.310200 16.547600 L 2.291200 17.289700 L 2.310200 18.031800 L 2.366600 18.764200 L 2.588200 20.196100 L 2.948400 21.578200 L 3.439900 22.903200 L 4.055500 24.163900 L 4.787700 25.353000 L 5.629200 26.463200 L 6.572800 27.487400 L 7.610900 28.418200 L 8.736300 29.248500 L 9.941600 29.970900 L 11.219600 30.578200 L 12.562700 31.063200 L 13.963800 31.418600 L 15.415400 31.637100 L 16.157900 31.692800 L 16.910200 31.711600 L 17.662500 31.692800 L 18.404900 31.637100 L 19.856400 31.418600 L 21.257300 31.063200 L 22.600500 30.578200 L 23.878400 29.970900 L 25.083700 29.248500 L 26.209100 28.418200 L 27.247300 27.487400 L 28.190900 26.463200 L 29.032500 25.353000 L 29.764800 24.163900 L 30.380400 22.903200 L 30.872000 21.578200 L 31.232300 20.196100 L 31.453800 18.764200 L 31.510300 18.031800 L 31.529300 17.289700 L 31.510300 16.547600 L 31.453800 15.815200 L 31.232300 14.383200 L 30.872000 13.001200 L 30.380400 11.676200 L 29.764800 10.415500 L 29.032500 9.226400 L 28.190900 8.116100 L 27.247300 7.092000 L 26.209100 6.161100 L 25.083700 5.330900 L 23.878400 4.608500 L 22.600500 4.001200 L 21.257300 3.516200 L 19.856400 3.160800 L 18.404900 2.942300 L 17.662500 2.886600 L 16.910200 2.867800 Z" transform="scale(1.000000,1.000000) translate(191.520000,125.280000)" fill="#272729" opacity="1.000000"></path>
        <path d="M 5.614626 1.000000 C 8.163582 1.000000 10.229260 3.037739 10.229260 5.552021 C 10.229260 8.066304 8.163582 10.104026 5.614626 10.104026 C 3.065678 10.104026 1.000000 8.066304 1.000000 5.552021 C 1.000000 3.037739 3.065678 1.000000 5.614626 1.000000 Z" transform="scale(1.000000,1.000000) translate(179.118084,127.973654)" fill="#f2ece9" opacity="1.000000"></path>
        <path d="M 7.464200 1.614500 L 7.987400 1.696600 L 8.492500 1.827900 L 8.976500 2.006100 L 9.436600 2.228100 L 9.870700 2.491700 L 10.275300 2.794100 L 10.648400 3.132600 L 10.987600 3.505200 L 11.289800 3.909000 L 11.552500 4.341700 L 11.772800 4.800500 L 11.948200 5.282900 L 12.075700 5.785700 L 12.152600 6.305900 L 12.176400 6.839800 L 12.145600 7.373500 L 12.061900 7.892000 L 11.928000 8.392500 L 11.746700 8.871600 L 11.520900 9.326800 L 11.253200 9.755500 L 10.946400 10.155200 L 10.603000 10.523300 L 10.225800 10.857500 L 9.817200 11.155000 L 9.379800 11.413500 L 8.916500 11.630100 L 8.429700 11.802400 L 7.922400 11.927700 L 7.397800 12.003300 L 6.859300 12.026800 L 6.321100 11.996600 L 5.797700 11.914600 L 5.292700 11.783200 L 4.808800 11.605100 L 4.348500 11.383000 L 3.914600 11.119500 L 3.509900 10.817100 L 3.136600 10.478400 L 2.797700 10.106000 L 2.495400 9.702100 L 2.232800 9.269500 L 2.012300 8.810500 L 1.837100 8.328300 L 1.709600 7.825500 L 1.632700 7.305400 L 1.608800 6.771200 L 1.639700 6.237700 L 1.723400 5.719200 L 1.857200 5.218900 L 2.038400 4.739700 L 2.264300 4.284300 L 2.532000 3.855500 L 2.838900 3.455900 L 3.182200 3.087900 L 3.559300 2.753800 L 3.968100 2.456000 L 4.405300 2.197800 L 4.868700 1.981000 L 5.355600 1.808700 L 5.862700 1.683500 L 6.387400 1.607800 L 6.859300 1.584300 L 6.926000 1.584300 Z M 6.420800 2.277100 L 5.962500 2.346100 L 5.520300 2.458200 L 5.096300 2.611300 L 4.692900 2.803000 L 4.312400 3.030900 L 3.957200 3.293000 L 3.629500 3.586800 L 3.331700 3.910000 L 3.066000 4.260400 L 2.834900 4.635700 L 2.640600 5.033700 L 2.485500 5.451900 L 2.371800 5.888200 L 2.301900 6.340200 L 2.278000 6.805600 L 2.301900 7.271100 L 2.371800 7.723100 L 2.485500 8.159400 L 2.640600 8.577600 L 2.834900 8.975500 L 3.066000 9.350800 L 3.331700 9.701200 L 3.629500 10.024500 L 3.957200 10.318300 L 4.312400 10.580300 L 4.692900 10.808300 L 5.096300 10.999900 L 5.520300 11.153000 L 5.962500 11.265200 L 6.420800 11.334100 L 6.892700 11.357600 L 7.364500 11.334100 L 7.822800 11.265200 L 8.265000 11.153000 L 8.689000 10.999900 L 9.092400 10.808300 L 9.472900 10.580300 L 9.828100 10.318300 L 10.155800 10.024500 L 10.453700 9.701200 L 10.719300 9.350800 L 10.950400 8.975500 L 11.144700 8.577600 L 11.299900 8.159400 L 11.413600 7.723100 L 11.483500 7.271100 L 11.507300 6.805600 L 11.483500 6.340200 L 11.413600 5.888200 L 11.299900 5.451900 L 11.144700 5.033700 L 10.950400 4.635700 L 10.719300 4.260400 L 10.453700 3.910000 L 10.155800 3.586800 L 9.828100 3.293000 L 9.472900 3.030900 L 9.092400 2.803000 L 8.689000 2.611300 L 8.265000 2.458200 L 7.822800 2.346100 L 7.364500 2.277100 L 6.892700 2.253600 Z" transform="scale(1.000000,1.000000) translate(177.840000,126.720000)" fill="#272729" opacity="1.000000"></path>
        <path d="M 7.156402 1.000000 C 10.556441 1.000000 13.312820 3.718387 13.312820 7.072155 C 13.312820 10.427014 10.556441 13.145369 7.156402 13.145369 C 3.756380 13.145369 1.000000 10.427014 1.000000 7.072155 C 1.000000 3.718387 3.756380 1.000000 7.156402 1.000000 Z" transform="scale(1.000000,1.000000) translate(247.759129,37.357411)" fill="#f2ece9" opacity="1.000000"></path>
        <path d="M 9.404600 1.726100 L 10.080800 1.831200 L 10.733700 2.000000 L 11.359300 2.229200 L 11.954300 2.515400 L 12.515300 2.855100 L 13.038700 3.244900 L 13.521400 3.681700 L 13.960000 4.162100 L 14.351000 4.683000 L 14.690800 5.240900 L 14.976200 5.832800 L 15.203400 6.454700 L 15.368900 7.103200 L 15.469200 7.774300 L 15.501000 8.463700 L 15.462200 9.153000 L 15.355100 9.822600 L 15.183300 10.468800 L 14.950100 11.087800 L 14.659300 11.676000 L 14.314400 12.230100 L 13.918800 12.746900 L 13.475900 13.223100 L 12.989200 13.655200 L 12.462000 14.040400 L 11.897500 14.375100 L 11.299300 14.655800 L 10.670800 14.879200 L 10.015900 15.041900 L 9.338100 15.140600 L 8.642200 15.171900 L 7.946200 15.133900 L 7.270100 15.028800 L 6.617200 14.860000 L 5.991600 14.630800 L 5.396500 14.344600 L 4.835600 14.004800 L 4.312200 13.615000 L 3.829500 13.178200 L 3.390900 12.697600 L 2.999900 12.176700 L 2.659900 11.618600 L 2.374600 11.026800 L 2.147500 10.404700 L 1.982000 9.756100 L 1.881700 9.084800 L 1.849900 8.395200 L 1.888700 7.706100 L 1.995800 7.036600 L 2.167700 6.390700 L 2.400800 5.771800 L 2.691500 5.183700 L 3.036500 4.629500 L 3.432100 4.112900 L 3.875000 3.636800 L 4.361700 3.204700 L 4.889000 2.819500 L 5.453400 2.484900 L 6.051600 2.204200 L 6.680100 1.980800 L 7.335000 1.818100 L 8.012700 1.719400 L 8.642200 1.688100 L 8.708700 1.688100 Z M 8.046000 2.388700 L 7.434800 2.480700 L 6.844800 2.630300 L 6.279200 2.834500 L 5.741000 3.090200 L 5.233400 3.394300 L 4.759500 3.743900 L 4.322300 4.135800 L 3.924900 4.567000 L 3.570500 5.034400 L 3.262100 5.535100 L 3.002900 6.065900 L 2.795900 6.623800 L 2.644200 7.205700 L 2.550900 7.808600 L 2.519100 8.429500 L 2.550900 9.050600 L 2.644200 9.653700 L 2.795900 10.235800 L 3.002900 10.793800 L 3.262100 11.324700 L 3.570500 11.825400 L 3.924900 12.292900 L 4.322300 12.724200 L 4.759500 13.116100 L 5.233400 13.465700 L 5.741000 13.769900 L 6.279200 14.025600 L 6.844800 14.229800 L 7.434800 14.379400 L 8.046000 14.471400 L 8.675500 14.502700 L 9.304900 14.471400 L 9.916200 14.379400 L 10.506200 14.229800 L 11.071800 14.025600 L 11.610000 13.769900 L 12.117600 13.465700 L 12.591500 13.116100 L 13.028700 12.724200 L 13.426100 12.292900 L 13.780500 11.825400 L 14.088800 11.324700 L 14.348100 10.793800 L 14.555100 10.235800 L 14.706800 9.653700 L 14.800100 9.050600 L 14.831900 8.429500 L 14.800100 7.808600 L 14.706800 7.205700 L 14.555100 6.623800 L 14.348100 6.065900 L 14.088800 5.535100 L 13.780500 5.034400 L 13.426100 4.567000 L 13.028700 4.135800 L 12.591500 3.743900 L 12.117600 3.394300 L 11.610000 3.090200 L 11.071800 2.834500 L 10.506200 2.630300 L 9.916200 2.480700 L 9.304900 2.388700 L 8.675500 2.357400 Z" transform="scale(1.000000,1.000000) translate(246.240000,36.000000)" fill="#272729" opacity="1.000000"></path>
    </g>
</svg>